<?xml version="1.0" encoding="UTF-8"?><svg id="_이어_1" xmlns="http://www.w3.org/2000/svg" xmlns:xlink="http://www.w3.org/1999/xlink" viewBox="0 0 1000 1000"><defs><style>.cls-1,.cls-2{fill:none;}.cls-3{clip-path:url(#clippath);}.cls-4{fill:#fff;}.cls-5{fill:#fb0;}.cls-6{fill:#24562f;}.cls-2{stroke:#fff;stroke-linecap:round;stroke-miterlimit:10;stroke-width:20px;}</style><clipPath id="clippath"><circle class="cls-1" cx="271.6" cy="489.86" r="134.45"/></clipPath></defs><ellipse class="cls-6" cx="273.11" cy="628.25" rx="146.04" ry="34.31"/><circle class="cls-5" cx="271.6" cy="489.86" r="134.45"/><path class="cls-2" d="M271.6,576.08c-47.62,0-86.22-38.6-86.22-86.22s38.6-86.22,86.22-86.22"/><g><path class="cls-5" d="M681.36,547.67c0,9.09-5.41,15.15-13.63,15.15h-47.18c-8.87,0-8.66-16.23-17.53-16.23h-89.38c-8.22,0-13.63-6.06-13.63-15.15v-22.07c0-9.09,5.19-14.5,13.42-13.85,32.89,3.03,62.54,2.6,96.52-1.3v-9.74c-33.98,3.9-63.63,4.33-96.52,1.3-8.01-.65-13.42-7.36-13.42-16.45v-22.07c0-9.09,5.41-15.15,13.63-15.15h154.09c8.22,0,13.63,6.06,13.63,15.15v100.42Zm0,61.46c0,9.09-5.41,15.15-13.63,15.15h-154.09c-8.22,0-13.63-6.06-13.63-15.15v-19.91c0-9.09,5.41-15.15,13.63-15.15h3.9c9.95,0,10.39-17.75,20.13-17.75h48.04c9.95,0,11.25,17.75,21.42,17.75h60.6c8.22,0,13.63,6.06,13.63,15.15v19.91Z"/><path class="cls-5" d="M749.79,496.42c-2.94-18.65-1.47-38.14-.5-56.79,.25-4.29-3.42-7.53-7.34-7.53h-33.55c-8.22,0-13.63,6.06-13.63,15.15v57.78c0,9.09,5.41,15.15,13.63,15.15h90.9c8.22,0,13.63-6.06,13.63-15.15v-57.78c0-9.09-5.41-15.15-13.63-15.15h-33.55c-4.57,0-8.39,2.8-8.51,7.72-.19,17.33-2.82,39.47,1.55,56.49"/><path class="cls-5" d="M862.5,432.1h-29.43c-8.22,0-13.63,6.06-13.63,15.15v57.78c0,9.09,5.41,15.15,13.63,15.15h29.43c8.22,0,13.64-6.06,13.64-15.15v-57.78c0-9.09-5.41-15.15-13.64-15.15Z"/><path class="cls-5" d="M862.5,524.52h-154.09c-8.22,0-13.63,6.06-13.63,16.66,0,9.09,5.41,14.5,13.42,13.85,36.57-3.03,68.61-2.6,106.48,1.3v4.33c-37.87-3.9-69.9-4.33-106.48-1.3-8.01,.65-13.42,7.36-13.42,16.45v33.33c0,9.09,5.41,15.15,13.63,15.15h154.09c8.22,0,13.64-6.06,13.64-15.15v-1.51c0-9.09-5.41-14.5-13.42-13.85-36.57,3.03-68.6,2.6-106.48-1.3v-4.33c37.87,3.9,69.9,4.33,106.48,1.3,8.01-.65,13.42-7.36,13.42-16.45v-33.33c0-9.09-5.41-15.15-13.64-15.15Z"/></g><g class="cls-3"><path class="cls-4" d="M418.68,553.58c-3.77-3.16-7.54-6.34-11.3-9.51-.7-.94-1.45-1.78-2.27-2.52-.88-3.91-3.24-7.45-7.04-9.69-9.29-5.48-18.49-11.22-27.94-16.42-4.98-2.75-10.32-5.17-15.97-6.07-7.13-1.14-14.07-.47-21.04,1.39-12.55,3.34-24.01,9.79-33.55,18.41-6.9-7.73-13.93-15.34-21.43-22.5-10.16-9.69-21.54-18.66-35.2-22.72-14.19-4.21-29.25-2.12-41.31,6.59-11.37,8.21-20.92,19.01-30.85,28.84-11.02,10.9-23.25,21.62-30.42,35.61-2.33,4.54-1.18,10.26,3.39,12.94,2.55,1.49,5.88,1.6,8.63,.46,.38,4.96,3.35,9.63,7.59,12.28,11.62,7.27,23.06,15.16,35.23,21.49,5.56,2.89,11.41,5.48,17.46,7.25,1.47,1.3,3.23,2.33,5.24,3,1.64,1.41,3.6,2.57,5.83,3.41,38.86,14.79,84.92,9.76,119.98-12.43,.37-.24,.74-.49,1.09-.76,3.45-1.05,6.87-2.19,10.23-3.52,8.93-3.54,16.61-7.75,24.11-13.75,3.02-2.42,4.43-6.32,4.47-10.29,6.36-2.93,12.68-5.94,18.95-9.05,.33-.16,.65-.35,.96-.54,.59,.5,1.19,1,1.78,1.49,3.91,3.28,9.54,3.83,13.37,0,3.37-3.37,3.93-10.08,0-13.37Z"/></g></svg>